<?xml version="1.0" standalone="no"?>
<!DOCTYPE svg PUBLIC "-//W3C//DTD SVG 20010904//EN"
 "http://www.w3.org/TR/2001/REC-SVG-20010904/DTD/svg10.dtd">
<svg version="1.0" xmlns="http://www.w3.org/2000/svg"
 width="400.000000pt" height="400.000000pt" viewBox="0 0 400.000000 400.000000"
 preserveAspectRatio="xMidYMid meet">
<metadata>
Created by potrace 1.11, written by Peter Selinger 2001-2013
</metadata>
<g transform="translate(0.000000,400.000000) scale(0.100000,-0.100000)"
fill="#000000" stroke="none">
<path d="M1023 3948 c-36 -40 -11 -100 41 -100 38 0 64 27 62 64 -4 56 -65 77
-103 36z"/>
<path d="M2090 3935 c-83 -23 -114 -41 -173 -100 -83 -83 -115 -218 -82 -341
9 -35 21 -64 26 -64 5 0 9 -6 9 -14 0 -19 79 -106 97 -106 7 0 13 -4 13 -9 0
-5 24 -19 53 -32 69 -31 210 -34 272 -4 44 21 127 76 122 82 -2 2 -24 6 -48 9
-261 36 -397 315 -260 535 16 27 27 50 23 52 -4 2 -27 -1 -52 -8z"/>
<path d="M2849 3915 c-67 -36 -53 -135 21 -148 38 -7 67 8 85 44 14 25 14 36
5 60 -7 15 -17 32 -24 37 -22 18 -61 21 -87 7z"/>
<path d="M3244 3588 c-27 -40 -52 -74 -56 -76 -5 -2 -8 -8 -8 -13 0 -11 -42
-72 -52 -77 -5 -2 -8 -10 -8 -17 0 -7 -3 -15 -8 -17 -4 -1 -34 -43 -67 -93
-32 -49 -64 -93 -69 -97 -7 -5 -7 -8 -1 -8 6 0 6 -3 -1 -8 -10 -7 -94 -127
-94 -134 0 -2 41 -3 90 -3 67 1 90 -2 90 -12 0 -7 -4 -13 -10 -13 -5 0 -10 -7
-10 -15 0 -8 -4 -15 -10 -15 -5 0 -10 -5 -10 -10 0 -6 -17 -34 -37 -63 -21
-29 -42 -60 -48 -70 -5 -9 -44 -67 -86 -129 -42 -62 -79 -117 -82 -123 -3 -6
26 -9 81 -7 88 2 125 -3 107 -16 -6 -4 -35 -45 -65 -92 -30 -47 -57 -87 -60
-90 -10 -10 -130 -189 -130 -195 0 -3 268 -5 595 -5 327 0 595 3 595 6 0 3
-55 87 -123 187 -68 100 -126 187 -130 193 -5 9 20 11 92 10 64 0 97 3 93 9
-3 6 -53 81 -111 168 -58 86 -111 166 -117 177 -6 11 -18 28 -27 38 -10 10
-17 23 -17 29 0 6 -5 13 -12 15 -6 2 -9 9 -6 14 4 5 42 9 85 8 43 -1 81 0 85
3 8 4 -91 160 -124 197 -10 11 -18 25 -18 32 0 7 -4 14 -8 16 -5 2 -38 48 -75
103 -37 55 -70 105 -74 110 -5 6 -30 43 -57 83 -26 39 -50 72 -51 72 -2 0 -25
-33 -51 -72z"/>
<path d="M79 3607 c-46 -36 -51 -98 -10 -136 42 -39 90 -40 124 -1 55 62 19
150 -61 150 -20 0 -44 -6 -53 -13z"/>
<path d="M3737 3548 c-9 -7 -21 -26 -26 -41 -9 -24 -7 -31 14 -53 29 -29 58
-31 85 -4 31 31 26 76 -10 95 -35 18 -42 19 -63 3z"/>
<path d="M1154 3526 c-14 -15 -198 -288 -203 -301 -2 -5 -7 -12 -10 -15 -7 -5
-158 -227 -176 -258 -5 -9 -12 -19 -15 -22 -3 -3 -23 -32 -44 -65 -22 -33 -43
-65 -48 -70 -5 -8 29 -11 107 -10 63 0 115 -1 115 -4 0 -5 -92 -143 -100 -151
-3 -3 -21 -30 -40 -60 -19 -30 -37 -57 -40 -60 -9 -9 -104 -150 -115 -170 -5
-11 -13 -20 -17 -20 -5 0 -8 -7 -8 -15 0 -8 -3 -15 -7 -15 -5 0 -16 -14 -25
-30 l-17 -30 119 0 c66 0 120 -3 120 -6 0 -3 -69 -107 -153 -232 -85 -125
-156 -232 -160 -237 -4 -7 223 -11 724 -11 401 0 729 3 729 7 0 3 -8 17 -17
30 -10 13 -22 32 -28 41 -8 13 -213 315 -263 387 -12 18 -8 19 105 20 64 1
119 4 121 5 3 4 -100 159 -274 413 -46 67 -84 125 -84 130 0 5 50 8 110 8 61
-1 110 1 110 3 0 6 -23 47 -29 52 -4 3 -24 32 -46 65 -21 33 -41 62 -44 65 -3
3 -10 13 -16 22 -5 10 -55 83 -110 164 -55 80 -107 156 -115 170 -20 31 -132
197 -139 206 -3 3 -11 1 -17 -6z"/>
<path d="M2358 3011 c-35 -37 -103 -111 -153 -165 -49 -54 -108 -118 -130
-141 -22 -24 -69 -75 -105 -114 -36 -40 -84 -93 -107 -118 -41 -44 -47 -63
-30 -90 20 -32 54 -12 138 79 46 50 98 105 114 123 17 17 68 74 115 125 47 51
102 111 123 134 21 22 57 62 79 88 l41 47 166 -86 c91 -47 172 -90 178 -96 19
-14 60 16 58 42 -2 26 -12 34 -140 101 -55 29 -129 69 -164 88 -112 60 -110
60 -183 -17z"/>
<path d="M3910 3058 c-25 -12 -48 -27 -52 -32 -4 -6 -8 -8 -8 -4 0 4 -35 -14
-77 -40 -60 -37 -79 -54 -81 -73 -2 -19 3 -28 20 -36 20 -9 33 -6 73 16 212
113 229 127 198 170 -18 26 -18 26 -73 -1z"/>
<path d="M1864 2927 c-30 -16 -43 -39 -44 -73 0 -30 30 -73 53 -75 7 0 21 -2
31 -4 30 -6 77 48 74 85 -4 55 -68 92 -114 67z"/>
<path d="M322 2910 c-61 -37 -70 -103 -23 -151 39 -39 89 -40 131 -1 58 52 34
133 -46 160 -26 8 -37 7 -62 -8z"/>
<path d="M11 2757 c-30 -30 -13 -53 119 -167 104 -90 140 -122 164 -145 63
-59 142 -120 158 -121 9 -1 25 7 33 17 14 14 14 21 4 41 -6 13 -15 25 -19 28
-4 3 -40 34 -80 70 -40 36 -84 74 -98 85 -14 11 -35 29 -46 40 -12 11 -55 49
-96 85 -41 36 -77 67 -80 70 -9 11 -47 9 -59 -3z"/>
<path d="M3245 2140 l-30 -5 0 -170 0 -170 80 0 79 0 1 168 c0 95 -3 171 -9
174 -12 8 -83 9 -121 3z"/>
<path d="M3015 2015 c-5 -2 -71 -22 -145 -45 -289 -88 -361 -110 -520 -160
-91 -28 -174 -54 -185 -56 -26 -7 -37 -10 -55 -17 -8 -3 -55 -18 -105 -33 -49
-15 -92 -29 -94 -30 -4 -3 48 -137 84 -219 8 -16 29 -68 48 -115 37 -92 151
-366 172 -415 16 -38 75 -179 110 -265 14 -36 32 -78 39 -95 8 -16 46 -109 86
-205 91 -222 99 -239 116 -272 8 -15 15 -30 14 -33 -2 -33 5 -33 87 5 35 17
69 30 74 30 5 0 9 5 9 10 0 6 4 10 9 10 12 0 301 135 483 225 36 19 69 31 72
28 3 -4 6 -1 6 5 0 7 3 11 8 10 4 -1 72 30 152 69 80 39 162 78 182 87 41 20
42 26 5 101 -13 28 -39 84 -57 125 -18 41 -52 117 -76 168 -24 51 -44 95 -44
97 0 3 -14 35 -31 72 -17 38 -48 106 -69 153 -21 47 -50 112 -65 145 -15 33
-38 85 -52 115 -14 30 -32 71 -41 90 -9 19 -17 37 -18 40 -1 6 -6 16 -94 210
-34 74 -64 143 -67 153 -5 16 -16 20 -38 12z"/>
<path d="M1069 1681 c-1 -3 -2 -100 -3 -216 l-1 -210 85 2 c47 1 91 2 98 2 9
1 12 51 12 214 l0 214 -95 0 c-52 0 -96 -2 -96 -6z"/>
<path d="M1819 1599 c-28 -49 -65 -120 -104 -195 -22 -44 -42 -81 -45 -84 -6
-6 -15 -23 -107 -200 -36 -69 -87 -165 -114 -215 -27 -49 -54 -102 -60 -117
-6 -16 -16 -28 -22 -28 -6 0 -7 -3 -4 -7 4 -3 -2 -20 -12 -37 -52 -87 -102
-189 -94 -196 4 -4 57 -26 117 -50 l108 -43 19 24 c10 13 80 117 156 231 76
113 141 203 144 200 3 -4 21 -43 38 -87 18 -44 38 -93 46 -110 7 -16 29 -70
49 -120 20 -49 41 -99 46 -110 33 -70 77 -185 72 -189 -3 -4 0 -6 6 -6 7 0 12
-7 12 -15 0 -24 22 -63 39 -68 15 -5 141 -56 189 -77 12 -6 32 -14 45 -19 12
-5 44 -19 71 -30 72 -31 73 -30 41 44 -7 17 -27 66 -44 110 -18 44 -36 89 -41
100 -5 11 -52 128 -105 260 -52 132 -100 249 -105 260 -8 17 -30 70 -35 85 -1
3 -7 19 -14 35 -7 17 -48 120 -92 230 -44 110 -99 245 -122 300 -23 55 -42
106 -44 114 -4 29 -21 33 -34 10z"/>
<path d="M589 1245 c-1 -29 -6 -63 -15 -120 -4 -27 -8 -58 -8 -67 0 -10 -4
-18 -8 -18 -4 0 -5 -7 -2 -15 4 -8 2 -15 -3 -15 -6 0 -18 20 -28 44 -21 52
-30 51 -39 -1 -7 -44 -7 -43 -31 -148 -11 -45 -19 -120 -19 -171 l-1 -91 -35
18 c-61 32 -114 7 -114 -55 0 -38 12 -52 80 -95 26 -17 46 -31 43 -32 -9 -2
-67 -8 -115 -12 -52 -5 -93 -21 -106 -41 -4 -6 -8 -25 -8 -43 0 -23 7 -37 27
-51 29 -19 41 -20 128 -8 149 21 145 23 98 -40 -45 -60 -19 -128 49 -126 34 1
48 13 132 115 22 26 42 47 46 47 4 0 60 -33 124 -74 123 -79 149 -92 181 -87
28 4 55 39 55 71 0 31 -20 51 -107 106 -35 21 -63 42 -63 47 0 4 12 7 28 8 88
2 135 28 140 76 6 62 -55 93 -142 70 l-28 -8 20 33 c11 18 21 36 21 41 2 12
-29 67 -37 67 -4 0 -7 37 -8 83 0 45 -3 95 -7 110 -22 102 -82 255 -94 243 -7
-7 -11 -24 -15 -63 -1 -13 -4 -23 -5 -23 -7 0 -62 120 -56 120 5 0 4 4 -2 8
-5 4 -21 27 -34 52 -31 59 -41 69 -42 45z m78 -252 c18 -43 37 -95 44 -115 10
-29 16 -35 26 -26 7 6 13 21 13 34 0 44 17 33 29 -19 25 -111 15 -227 -29
-319 -71 -151 -209 -129 -249 39 -15 62 -18 178 -6 248 5 28 9 53 9 58 2 20
22 4 29 -25 16 -63 29 -52 52 42 31 130 40 160 45 160 3 0 20 -35 37 -77z"/>
</g>
</svg>
